<svg width="20" height="20" viewBox="0 0 20 20" fill="none" xmlns="http://www.w3.org/2000/svg">
<g id="Checker">
<path id="Vector" d="M14.4898 6.99167C14.5934 7.09489 14.6756 7.21755 14.7317 7.35261C14.7878 7.48767 14.8166 7.63246 14.8166 7.7787C14.8166 7.92494 14.7878 8.06974 14.7317 8.2048C14.6756 8.33985 14.5934 8.46251 14.4898 8.56574L9.30463 13.7509C9.20141 13.8545 9.07875 13.9367 8.94369 13.9928C8.80863 14.0489 8.66383 14.0777 8.5176 14.0777C8.37136 14.0777 8.22656 14.0489 8.0915 13.9928C7.95644 13.9367 7.83378 13.8545 7.73056 13.7509L5.50834 11.5287C5.40498 11.4253 5.323 11.3026 5.26706 11.1676C5.21113 11.0326 5.18234 10.8878 5.18234 10.7417C5.18234 10.5955 5.21113 10.4508 5.26706 10.3157C5.323 10.1807 5.40498 10.058 5.50834 9.95463C5.61169 9.85127 5.73439 9.76929 5.86943 9.71335C6.00447 9.65742 6.14921 9.62863 6.29537 9.62863C6.44154 9.62863 6.58627 9.65742 6.72131 9.71335C6.85635 9.76929 6.97905 9.85127 7.08241 9.95463L8.51852 11.3889L12.9176 6.98889C13.021 6.88576 13.1437 6.80402 13.2786 6.74835C13.4136 6.69267 13.5583 6.66414 13.7043 6.6644C13.8503 6.66466 13.9948 6.6937 14.1296 6.74985C14.2644 6.80601 14.3868 6.88818 14.4898 6.99167ZM20 10C20 11.9778 19.4135 13.9112 18.3147 15.5557C17.2159 17.2002 15.6541 18.4819 13.8268 19.2388C11.9996 19.9957 9.98891 20.1937 8.0491 19.8078C6.10929 19.422 4.32746 18.4696 2.92894 17.0711C1.53041 15.6725 0.578004 13.8907 0.192152 11.9509C-0.1937 10.0111 0.00433286 8.00043 0.761209 6.17316C1.51809 4.3459 2.79981 2.78412 4.4443 1.6853C6.08879 0.58649 8.02219 0 10 0C12.6513 0.00294095 15.1931 1.05745 17.0678 2.93218C18.9425 4.80691 19.9971 7.34874 20 10ZM17.7778 10C17.7778 8.4617 17.3216 6.95795 16.467 5.6789C15.6124 4.39985 14.3976 3.40295 12.9764 2.81427C11.5552 2.22559 9.99137 2.07156 8.48263 2.37167C6.97389 2.67178 5.58803 3.41254 4.50028 4.50028C3.41254 5.58802 2.67178 6.97389 2.37167 8.48263C2.07157 9.99137 2.22559 11.5552 2.81427 12.9764C3.40296 14.3976 4.39985 15.6123 5.6789 16.467C6.95795 17.3216 8.4617 17.7778 10 17.7778C12.0621 17.7756 14.0391 16.9554 15.4973 15.4973C16.9554 14.0391 17.7756 12.0621 17.7778 10Z" fill="#18AF5E"/>
</g>
</svg>
