<svg width="48" height="48" viewBox="0 0 48 48" fill="none" xmlns="http://www.w3.org/2000/svg">
<g id="Outline/close">
<path id="Vector" fill-rule="evenodd" clip-rule="evenodd" d="M24 41C33.3888 41 41 33.3888 41 24C41 14.6112 33.3888 7 24 7C14.6112 7 7 14.6112 7 24C7 33.3888 14.6112 41 24 41ZM43 24C43 34.4934 34.4934 43 24 43C13.5066 43 5 34.4934 5 24C5 13.5066 13.5066 5 24 5C34.4934 5 43 13.5066 43 24ZM17.2929 30.7071C16.9024 30.3166 16.9024 29.6834 17.2929 29.2929L22.5858 24L17.2929 18.7071C16.9024 18.3166 16.9024 17.6834 17.2929 17.2929C17.6834 16.9024 18.3166 16.9024 18.7071 17.2929L24 22.5858L29.2929 17.2929C29.6834 16.9024 30.3166 16.9024 30.7071 17.2929C31.0976 17.6834 31.0976 18.3166 30.7071 18.7071L25.4142 24L30.7071 29.2929C31.0976 29.6834 31.0976 30.3166 30.7071 30.7071C30.3166 31.0976 29.6834 31.0976 29.2929 30.7071L24 25.4142L18.7071 30.7071C18.3166 31.0976 17.6834 31.0976 17.2929 30.7071Z" fill="#505050"/>
</g>
</svg>
