<svg width="28" height="32" viewBox="0 0 28 32" fill="none" xmlns="http://www.w3.org/2000/svg">
<path d="M24.2857 1.14307H3.7143C3.10809 1.14307 2.52671 1.38388 2.09806 1.81254C1.6694 2.24119 1.42859 2.82257 1.42859 3.42878V28.5716C1.42859 29.1778 1.6694 29.7592 2.09806 30.1879C2.52671 30.6165 3.10809 30.8574 3.7143 30.8574H24.2857C24.8919 30.8574 25.4733 30.6165 25.902 30.1879C26.3306 29.7592 26.5714 29.1778 26.5714 28.5716V3.42878C26.5714 2.82257 26.3306 2.24119 25.902 1.81254C25.4733 1.38388 24.8919 1.14307 24.2857 1.14307Z" stroke="#505050" stroke-width="1.71429" stroke-linecap="round" stroke-linejoin="round"/>
<path d="M14 20.5717C15.8187 20.5717 17.5628 19.8493 18.8488 18.5633C20.1347 17.2773 20.8572 15.5332 20.8572 13.7146M14 20.5717C12.1814 20.5717 10.4373 19.8493 9.15129 18.5633C7.86533 17.2773 7.14288 15.5332 7.14288 13.7146M14 20.5717V6.85742M20.8572 13.7146C20.8572 11.8959 20.1347 10.1518 18.8488 8.86583C17.5628 7.57987 15.8187 6.85742 14 6.85742M20.8572 13.7146H7.14288M14 6.85742C12.1814 6.85742 10.4373 7.57987 9.15129 8.86583C7.86533 10.1518 7.14288 11.8959 7.14288 13.7146" stroke="#505050" stroke-width="1.71429" stroke-linecap="round" stroke-linejoin="round"/>
</svg>
