<svg width="159" height="36" viewBox="0 0 159 36" fill="none" xmlns="http://www.w3.org/2000/svg">
<path d="M39.0931 5.84631C39.0931 5.84631 46.247 -1.87545 54.1437 0.429606C54.1437 0.429606 55.737 1.0581 53.8608 3.33062C51.9847 5.60142 43.5916 15.3166 43.5916 15.3166C43.5916 15.3166 41.502 16.8544 43.3434 18.7758C45.1848 20.6973 45.3272 21.3617 53.4721 24.821L51.7018 27.3727C51.7018 27.3727 42.2813 28.1759 33.6418 27.8265C33.6418 27.8265 36.0507 26.3589 38.2462 20.9079C38.2462 20.9079 17.706 44.7394 0 32.5086C0 32.5086 10.1998 35.2349 19.1934 26.847L2.97472 23.6326L5.09902 20.9764C5.09902 20.9764 24.5059 20.4867 30.5959 14.9655C36.6859 9.44431 35.3929 9.90841 39.0931 5.84631Z" fill="#7B52AB"/>
<path d="M61.6343 15.3388V27.1484H57.9029V15.3388H61.6343ZM68.0298 15.3388H72.9796L66.1415 21.0329L73.8612 27.1484H68.455L61.6326 21.0329L68.0298 15.3388Z" fill="#7B52AB"/>
<path d="M79.5867 25.1344L78.476 27.1484H74.3333L80.8971 15.3388H85.6785L92.1798 27.1484H88.0371L86.9402 25.1344H79.5867ZM80.9422 22.5965H85.5709L83.2557 18.3443L80.9422 22.5965Z" fill="#7B52AB"/>
<path d="M93.1083 15.3388H103.66C104.23 15.3388 104.731 15.3645 105.169 15.4142C105.604 15.4638 106.021 15.5871 106.416 15.7823C106.812 15.9776 107.135 16.2841 107.383 16.6985C107.631 17.1147 107.756 17.6627 107.756 18.3443C107.756 18.9454 107.67 19.4334 107.498 19.8085C107.324 20.1835 107.121 20.4644 106.889 20.6493C106.654 20.8343 106.437 20.9542 106.234 21.0107C106.031 21.0655 105.873 21.0929 105.762 21.0929V21.1374C105.976 21.1374 106.208 21.1648 106.463 21.2196C106.717 21.2744 106.975 21.3909 107.239 21.5655C107.503 21.7402 107.727 22.0142 107.909 22.3841C108.091 22.7557 108.183 23.2352 108.183 23.8261C108.183 24.5676 108.074 25.1601 107.855 25.6071C107.637 26.0523 107.328 26.3863 106.927 26.6055C106.526 26.8264 106.069 26.972 105.556 27.0405C105.044 27.1107 104.41 27.1449 103.66 27.1449H93.1083V23.1633V15.3388ZM96.6731 19.9969H103.145C103.419 19.9969 103.652 19.9044 103.846 19.7194C104.039 19.5345 104.136 19.281 104.136 18.9608C104.136 18.6799 104.044 18.447 103.862 18.2621C103.68 18.0771 103.456 17.9846 103.192 17.9846H96.6749V19.9969H96.6731ZM96.7339 24.398H103.509C103.804 24.398 104.042 24.3158 104.224 24.1497C104.407 23.9853 104.499 23.7216 104.499 23.3603C104.499 23.0691 104.407 22.8345 104.224 22.6547C104.042 22.4749 103.803 22.3841 103.509 22.3841H96.7339V24.398Z" fill="#7B52AB"/>
<path d="M109.388 18.3426C109.388 17.8614 109.443 17.464 109.556 17.1472C109.667 16.8321 109.875 16.5393 110.181 16.2687C110.445 16.0084 110.74 15.808 111.064 15.6676C111.389 15.5272 111.797 15.4279 112.29 15.3679C112.783 15.308 113.373 15.2703 114.063 15.2549C114.754 15.2395 115.82 15.2326 117.262 15.2326C118.704 15.2326 119.77 15.2395 120.461 15.2549C121.151 15.2703 121.738 15.308 122.219 15.3679C122.699 15.4279 123.102 15.5289 123.421 15.6676C123.741 15.808 124.032 16.0084 124.296 16.2687C124.6 16.5393 124.808 16.8321 124.921 17.1472C125.032 17.4623 125.087 17.8614 125.087 18.3426V20.0551C125.087 21.6084 125.087 22.9544 125.087 24.0966C125.087 24.5779 125.032 24.9837 124.921 25.3142C124.81 25.6448 124.602 25.9445 124.296 26.215C124.032 26.4651 123.736 26.6586 123.406 26.7939C123.076 26.9292 122.665 27.0302 122.172 27.0936C121.679 27.1586 121.073 27.2014 120.351 27.222C119.631 27.2425 118.584 27.2528 117.215 27.2528C115.844 27.2528 114.804 27.2425 114.093 27.222C113.383 27.2014 112.777 27.1586 112.281 27.0936C111.783 27.0285 111.377 26.9274 111.063 26.7939C110.748 26.6586 110.453 26.4651 110.179 26.215C109.875 25.9445 109.667 25.6448 109.554 25.3142C109.443 24.9837 109.386 24.5779 109.386 24.0966V18.3426H109.388ZM112.753 23.6325C112.753 23.8826 112.829 24.0555 112.982 24.1514C113.135 24.2473 113.423 24.2936 113.85 24.2936C114.409 24.2936 116.667 24.2936 120.625 24.2936C121.021 24.2936 121.313 24.2319 121.502 24.1052C121.689 23.9802 121.783 23.8226 121.783 23.6325V22.2797V18.8529C121.783 18.572 121.705 18.382 121.547 18.2826C121.389 18.1833 121.097 18.1319 120.672 18.1319C120.113 18.1319 117.84 18.1319 113.85 18.1319C113.454 18.1319 113.171 18.197 113.005 18.3272C112.838 18.4573 112.753 18.6337 112.753 18.8529V23.6325Z" fill="#7B52AB"/>
<path d="M126.396 18.3426C126.396 17.8614 126.452 17.464 126.564 17.1472C126.676 16.8321 126.884 16.5393 127.189 16.2687C127.453 16.0084 127.748 15.808 128.073 15.6676C128.397 15.5272 128.805 15.4279 129.298 15.3679C129.791 15.308 130.381 15.2703 131.072 15.2549C131.762 15.2395 132.828 15.2326 134.27 15.2326C135.712 15.2326 136.778 15.2395 137.469 15.2549C138.16 15.2703 138.746 15.308 139.227 15.3679C139.708 15.4279 140.11 15.5289 140.43 15.6676C140.749 15.808 141.041 16.0084 141.304 16.2687C141.608 16.5393 141.816 16.8321 141.929 17.1472C142.04 17.4623 142.096 17.8614 142.096 18.3426V20.0551C142.096 21.6084 142.096 22.9544 142.096 24.0966C142.096 24.5779 142.04 24.9837 141.929 25.3142C141.818 25.6448 141.61 25.9445 141.304 26.215C141.041 26.4651 140.744 26.6586 140.414 26.7939C140.084 26.9292 139.673 27.0302 139.18 27.0936C138.687 27.1586 138.081 27.2014 137.36 27.222C136.639 27.2425 135.593 27.2528 134.223 27.2528C132.852 27.2528 131.813 27.2425 131.101 27.222C130.391 27.2014 129.786 27.1586 129.289 27.0936C128.791 27.0285 128.385 26.9274 128.071 26.7939C127.757 26.6586 127.462 26.4651 127.187 26.215C126.884 25.9445 126.676 25.6448 126.563 25.3142C126.452 24.9837 126.394 24.5779 126.394 24.0966V18.3426H126.396ZM129.763 23.6325C129.763 23.8826 129.839 24.0555 129.992 24.1514C130.145 24.2473 130.433 24.2936 130.86 24.2936C131.419 24.2936 133.677 24.2936 137.635 24.2936C138.031 24.2936 138.323 24.2319 138.512 24.1052C138.699 23.9802 138.793 23.8226 138.793 23.6325V22.2797V18.8529C138.793 18.572 138.715 18.382 138.557 18.2826C138.399 18.1833 138.108 18.1319 137.682 18.1319C137.123 18.1319 134.85 18.1319 130.86 18.1319C130.464 18.1319 130.181 18.197 130.015 18.3272C129.848 18.4573 129.763 18.6337 129.763 18.8529V23.6325Z" fill="#7B52AB"/>
<path d="M154.005 20.4027C154.29 20.1921 154.432 19.8873 154.432 19.4865C154.432 19.1355 154.295 18.8478 154.021 18.6234C153.747 18.3974 153.427 18.2861 153.061 18.2861H147.138V27.1484H143.406V15.3388H153.335C154.177 15.3388 154.878 15.3987 155.437 15.5186C155.996 15.6385 156.452 15.8371 156.808 16.1129C157.164 16.3886 157.424 16.7619 157.592 17.2328C157.759 17.7038 157.844 18.2998 157.844 19.0207C157.844 19.7417 157.778 20.3479 157.646 20.8394C157.514 21.3309 157.306 21.7265 157.021 22.0262C156.737 22.3259 156.358 22.5468 155.886 22.6872C155.414 22.8277 154.823 22.8979 154.113 22.8979V22.9578L159 27.1484H154.857L147.655 20.7178H153.014C153.391 20.7178 153.72 20.6117 154.005 20.4027Z" fill="#7B52AB"/>
</svg>
