<svg width="55" height="36" viewBox="0 0 55 36" fill="none" xmlns="http://www.w3.org/2000/svg">
<path d="M39.0931 5.84631C39.0931 5.84631 46.247 -1.87545 54.1437 0.429606C54.1437 0.429606 55.737 1.0581 53.8608 3.33062C51.9847 5.60142 43.5916 15.3166 43.5916 15.3166C43.5916 15.3166 41.502 16.8544 43.3434 18.7758C45.1848 20.6973 45.3272 21.3617 53.4721 24.821L51.7018 27.3727C51.7018 27.3727 42.2813 28.1759 33.6418 27.8265C33.6418 27.8265 36.0507 26.3589 38.2462 20.9079C38.2462 20.9079 17.706 44.7394 0 32.5086C0 32.5086 10.1998 35.2349 19.1934 26.847L2.97472 23.6326L5.09902 20.9764C5.09902 20.9764 24.5059 20.4867 30.5959 14.9655C36.6859 9.44431 35.3929 9.90841 39.0931 5.84631Z" fill="#7B52AB"/>
</svg>
