<svg width="60" height="56" viewBox="0 0 60 56" fill="none" xmlns="http://www.w3.org/2000/svg">
<g id="Kaboor Plane">
<path id="Vector" d="M53.5714 42.3707H45.6429C46.5 39.8285 47.1429 36.8625 47.1429 33.8966C47.1429 30.0832 46.2857 26.4817 44.7857 23.3039H51.4286C52.7143 23.3039 53.5714 22.4565 53.5714 21.1854C53.5714 19.9142 52.7143 19.0668 51.4286 19.0668H42.4286H42.2143C39.6429 15.6772 36 13.5586 32.1429 12.9231V2.11854C32.1429 0.847415 31.2857 0 30 0C28.7143 0 27.8571 0.847415 27.8571 2.11854V12.9231C24 13.5586 20.3571 15.6772 17.7857 19.0668H17.5714H8.57143C7.28571 19.0668 6.42857 19.9142 6.42857 21.1854C6.42857 22.4565 7.28571 23.3039 8.57143 23.3039H15.4286C15.4286 24.1513 15.8571 24.7869 16.5 25.2106C17.5714 25.8462 18.8571 25.4224 19.2857 24.3632C21.6429 19.7024 25.7143 16.9483 29.7857 16.9483C36.8571 16.9483 42.6429 24.575 42.6429 33.8966C42.6429 43.2182 36.8571 50.8449 29.7857 50.8449C24.4286 50.8449 19.5 46.396 17.7857 39.8285C17.5714 38.7692 16.2857 38.1337 15.2143 38.3455C14.1429 38.5574 13.5 39.8285 13.7143 40.8878C13.9286 41.3115 13.9286 41.947 14.1429 42.3707H6.42857C2.78571 42.3707 0 45.1248 0 48.7264C0 52.3279 2.78571 55.082 6.42857 55.082C10.0714 55.082 12.8571 52.3279 12.8571 48.7264C12.8571 47.8789 12.6429 47.2434 12.4286 46.6078H16.2857C19.5 51.9042 24.4286 55.082 30 55.082C35.5714 55.082 40.5 51.6923 43.7143 46.6078H47.5714C47.3571 47.2434 47.1429 47.8789 47.1429 48.7264C47.1429 52.3279 49.9286 55.082 53.5714 55.082C57.2143 55.082 60 52.3279 60 48.7264C60 45.1248 57.2143 42.3707 53.5714 42.3707ZM8.57143 48.7264C8.57143 49.9975 7.71429 50.8449 6.42857 50.8449C5.14286 50.8449 4.28571 49.9975 4.28571 48.7264C4.28571 47.4552 5.14286 46.6078 6.42857 46.6078C7.71429 46.6078 8.57143 47.4552 8.57143 48.7264ZM53.5714 50.8449C52.2857 50.8449 51.4286 49.9975 51.4286 48.7264C51.4286 47.4552 52.2857 46.6078 53.5714 46.6078C54.8571 46.6078 55.7143 47.4552 55.7143 48.7264C55.7143 49.9975 54.8571 50.8449 53.5714 50.8449ZM15 33.8966C13.7143 33.8966 12.8571 33.0492 12.8571 31.7781C12.8571 30.5069 13.7143 29.6595 15 29.6595C16.2857 29.6595 17.1429 30.5069 17.1429 31.7781C17.1429 33.0492 16.2857 33.8966 15 33.8966ZM30 37.9218C27.4286 37.9218 24.6429 37.0744 22.2857 35.5914C21.2143 34.9559 21 33.6847 21.6429 32.6255C22.2857 31.5662 23.5714 31.3544 24.6429 31.9899C27.8571 34.1084 31.9286 34.1084 35.1429 31.9899C36.2143 31.3544 37.5 31.5662 38.1429 32.6255C38.7857 33.6847 38.5714 34.9559 37.5 35.5914C35.3571 37.2863 32.5714 37.9218 30 37.9218Z" fill="white"/>
</g>
</svg>
