<svg width="44" height="55" viewBox="0 0 44 55" fill="none" xmlns="http://www.w3.org/2000/svg">
<g id="Kaboor Ekstra Bagasii">
<path id="Vector" d="M37.2619 7.85714H33.7262V5.89286C33.7262 2.55357 31.1726 0 27.8333 0H16.0476C12.7083 0 10.1547 2.55357 10.1547 5.89286V7.85714H6.61903C3.08331 7.85714 0.333313 10.4107 0.333313 13.75V23.5714C0.333313 24.75 1.11903 25.5357 2.2976 25.5357C3.47617 25.5357 4.26188 24.75 4.26188 23.5714V13.75C4.26188 12.5714 5.24403 11.7857 6.61903 11.7857H12.119H31.7619H37.2619C38.6369 11.7857 39.619 12.5714 39.619 13.75V49.1071C39.619 50.2857 38.6369 51.0714 37.2619 51.0714H6.61903C5.24403 51.0714 4.26188 50.2857 4.26188 49.1071V39.2857C4.26188 38.1071 3.47617 37.3214 2.2976 37.3214C1.11903 37.3214 0.333313 38.1071 0.333313 39.2857V49.1071C0.333313 52.4464 3.08331 55 6.61903 55H37.2619C40.7976 55 43.5476 52.4464 43.5476 49.1071V13.75C43.5476 10.4107 40.7976 7.85714 37.2619 7.85714ZM14.0833 7.85714V5.89286C14.0833 4.71429 14.869 3.92857 16.0476 3.92857H27.8333C29.0119 3.92857 29.7976 4.71429 29.7976 5.89286V7.85714H14.0833ZM21.9405 47.1429C20.7619 47.1429 19.9762 46.3571 19.9762 45.1786V17.6786C19.9762 16.5 20.7619 15.7143 21.9405 15.7143C23.119 15.7143 23.9047 16.5 23.9047 17.6786V45.1786C23.9047 46.3571 23.119 47.1429 21.9405 47.1429ZM31.7619 39.2857C30.5833 39.2857 29.7976 38.5 29.7976 37.3214V25.5357C29.7976 24.3571 30.5833 23.5714 31.7619 23.5714C32.9405 23.5714 33.7262 24.3571 33.7262 25.5357V37.3214C33.7262 38.5 32.9405 39.2857 31.7619 39.2857ZM12.119 39.2857C10.9405 39.2857 10.1547 38.5 10.1547 37.3214V25.5357C10.1547 24.3571 10.9405 23.5714 12.119 23.5714C13.2976 23.5714 14.0833 24.3571 14.0833 25.5357V37.3214C14.0833 38.5 13.2976 39.2857 12.119 39.2857ZM0.333313 31.4286C0.333313 30.25 1.11903 29.4643 2.2976 29.4643C3.47617 29.4643 4.26188 30.25 4.26188 31.4286C4.26188 32.6071 3.47617 33.3929 2.2976 33.3929C1.11903 33.3929 0.333313 32.6071 0.333313 31.4286Z" fill="white"/>
</g>
</svg>
