<svg width="59" height="50" viewBox="0 0 59 50" fill="none" xmlns="http://www.w3.org/2000/svg">
<g id="Kaboor Food">
<path id="Vector" d="M59 47.9167C59 49.1667 58.1667 50 56.9167 50H38.1667C36.9167 50 36.0833 49.1667 36.0833 47.9167C36.0833 46.6667 36.9167 45.8333 38.1667 45.8333H48.375C47.3333 36.4583 39.4167 29.1667 29.8333 29.1667C20.25 29.1667 12.3333 36.4583 11.2917 45.8333H21.5C22.75 45.8333 23.5833 46.6667 23.5833 47.9167C23.5833 49.1667 22.75 50 21.5 50H2.74999C1.49999 50 0.666657 49.1667 0.666657 47.9167C0.666657 46.6667 1.49999 45.8333 2.74999 45.8333H7.12499C8.16666 34.1667 17.9583 25 29.8333 25C41.7083 25 51.5 34.1667 52.5417 45.8333H56.9167C58.1667 45.8333 59 46.6667 59 47.9167ZM29.8333 20.8333C31.0833 20.8333 31.9167 20 31.9167 18.75V2.08333C31.9167 0.833333 31.0833 0 29.8333 0C28.5833 0 27.75 0.833333 27.75 2.08333V18.75C27.75 20 28.5833 20.8333 29.8333 20.8333ZM46.5 27.0833C47.125 27.0833 47.5417 26.875 47.9583 26.4583L58.375 16.0417C59.2083 15.2083 59.2083 13.9583 58.375 13.125C57.5417 12.2917 56.2917 12.2917 55.4583 13.125L45.0417 23.5417C44.2083 24.375 44.2083 25.625 45.0417 26.4583C45.4583 26.875 45.875 27.0833 46.5 27.0833ZM11.7083 26.4583C12.125 26.875 12.5417 27.0833 13.1667 27.0833C13.7917 27.0833 14.2083 26.875 14.625 26.4583C15.4583 25.625 15.4583 24.375 14.625 23.5417L4.20832 13.125C3.37499 12.2917 2.12499 12.2917 1.29166 13.125C0.458323 13.9583 0.458323 15.2083 1.29166 16.0417L11.7083 26.4583ZM29.8333 45.8333C28.5833 45.8333 27.75 46.6667 27.75 47.9167C27.75 49.1667 28.5833 50 29.8333 50C31.0833 50 31.9167 49.1667 31.9167 47.9167C31.9167 46.6667 31.0833 45.8333 29.8333 45.8333ZM40.25 18.75C41.5 18.75 42.3333 17.9167 42.3333 16.6667V12.5C42.3333 11.25 41.5 10.4167 40.25 10.4167C39 10.4167 38.1667 11.25 38.1667 12.5V16.6667C38.1667 17.9167 39 18.75 40.25 18.75ZM56.9167 31.25H52.75C51.5 31.25 50.6667 32.0833 50.6667 33.3333C50.6667 34.5833 51.5 35.4167 52.75 35.4167H56.9167C58.1667 35.4167 59 34.5833 59 33.3333C59 32.0833 58.1667 31.25 56.9167 31.25ZM2.74999 35.4167H6.91666C8.16666 35.4167 8.99999 34.5833 8.99999 33.3333C8.99999 32.0833 8.16666 31.25 6.91666 31.25H2.74999C1.49999 31.25 0.666657 32.0833 0.666657 33.3333C0.666657 34.5833 1.49999 35.4167 2.74999 35.4167ZM19.4167 18.75C20.6667 18.75 21.5 17.9167 21.5 16.6667V12.5C21.5 11.25 20.6667 10.4167 19.4167 10.4167C18.1667 10.4167 17.3333 11.25 17.3333 12.5V16.6667C17.3333 17.9167 18.1667 18.75 19.4167 18.75Z" fill="white"/>
</g>
</svg>
