<svg width="44" height="55" viewBox="0 0 44 55" fill="none" xmlns="http://www.w3.org/2000/svg">
<g id="Kaboor Asuransi">
<path id="Vector" d="M43.2143 5.89286V49.1071C43.2143 52.4464 40.6607 55 37.3214 55H5.89283C2.55354 55 -3.05176e-05 52.4464 -3.05176e-05 49.1071V27.5C-3.05176e-05 26.3214 0.785684 25.5357 1.96426 25.5357C3.14283 25.5357 3.92854 26.3214 3.92854 27.5V49.1071C3.92854 50.2857 4.71426 51.0714 5.89283 51.0714H37.3214C38.5 51.0714 39.2857 50.2857 39.2857 49.1071V5.89286C39.2857 4.71429 38.5 3.92857 37.3214 3.92857H5.89283C4.71426 3.92857 3.92854 4.71429 3.92854 5.89286V11.7857C3.92854 12.9643 3.14283 13.75 1.96426 13.75C0.785684 13.75 -3.05176e-05 12.9643 -3.05176e-05 11.7857V5.89286C-3.05176e-05 2.55357 2.55354 0 5.89283 0H37.3214C40.6607 0 43.2143 2.55357 43.2143 5.89286ZM7.85711 21.6071C7.85711 13.9464 13.9464 7.85714 21.6071 7.85714C29.2678 7.85714 35.3571 13.9464 35.3571 21.6071C35.3571 29.2679 29.2678 35.3571 21.6071 35.3571C13.9464 35.3571 7.85711 29.2679 7.85711 21.6071ZM16.8928 30.0536C16.3035 28.0893 15.9107 25.9286 15.9107 23.5714H12.1785C12.5714 26.3214 14.3393 28.6786 16.8928 30.0536ZM21.6071 11.9821C21.0178 12.7679 20.0357 15.3214 19.6428 19.6429H23.5714C23.1785 15.3214 22.1964 12.7679 21.6071 11.9821ZM19.6428 23.5714C19.8393 27.8929 20.8214 30.4464 21.6071 31.2321C22.1964 30.4464 23.1785 27.8929 23.5714 23.5714H19.6428ZM31.2321 23.5714H27.5C27.3035 25.9286 27.1071 28.2857 26.5178 30.0536C28.875 28.6786 30.6428 26.3214 31.2321 23.5714ZM26.3214 13.1607C26.9107 15.125 27.3035 17.2857 27.3035 19.6429H31.0357C30.6428 16.8929 28.875 14.5357 26.3214 13.1607ZM11.9821 19.6429H15.7143C15.9107 17.2857 16.1071 14.9286 16.6964 13.1607C14.3393 14.5357 12.5714 16.8929 11.9821 19.6429ZM9.8214 43.2143H33.3928C34.5714 43.2143 35.3571 42.4286 35.3571 41.25C35.3571 40.0714 34.5714 39.2857 33.3928 39.2857H9.8214C8.64283 39.2857 7.85711 40.0714 7.85711 41.25C7.85711 42.4286 8.64283 43.2143 9.8214 43.2143ZM1.96426 21.6071C3.14283 21.6071 3.92854 20.8214 3.92854 19.6429C3.92854 18.4643 3.14283 17.6786 1.96426 17.6786C0.785684 17.6786 -3.05176e-05 18.4643 -3.05176e-05 19.6429C-3.05176e-05 20.8214 0.785684 21.6071 1.96426 21.6071Z" fill="white"/>
</g>
</svg>
