<svg width="20" height="20" viewBox="0 0 20 20" fill="none" xmlns="http://www.w3.org/2000/svg">
<g id="Group">
<path id="Vector" d="M20 0V20H0V0H20ZM10.4942 19.3817L10.485 19.3833L10.4258 19.4125L10.4092 19.4158L10.3975 19.4125L10.3383 19.3833C10.33 19.38 10.3225 19.3825 10.3183 19.3875L10.315 19.3958L10.3008 19.7525L10.305 19.7692L10.3133 19.78L10.4 19.8417L10.4125 19.845L10.4225 19.8417L10.5092 19.78L10.5192 19.7667L10.5225 19.7525L10.5083 19.3967C10.5067 19.3883 10.5008 19.3825 10.4942 19.3817ZM10.715 19.2875L10.7042 19.2892L10.55 19.3667L10.5417 19.375L10.5392 19.3842L10.5542 19.7425L10.5583 19.7525L10.565 19.7583L10.7325 19.8358C10.7425 19.8392 10.7517 19.8358 10.7567 19.8292L10.76 19.8175L10.7317 19.3058C10.7292 19.2958 10.7233 19.2892 10.715 19.2875ZM10.1192 19.2892C10.1154 19.2874 10.1111 19.287 10.1071 19.2879C10.103 19.2888 10.0994 19.291 10.0967 19.2942L10.0917 19.3058L10.0633 19.8175C10.0633 19.8275 10.0692 19.8342 10.0775 19.8375L10.09 19.8358L10.2575 19.7583L10.2658 19.7517L10.2692 19.7425L10.2833 19.3842L10.2808 19.3742L10.2725 19.3658L10.1192 19.2892Z" fill="white"/>
<path id="Vector_2" d="M10.585 1.82919L16.4183 4.01669C16.7361 4.1358 17.0099 4.34906 17.2032 4.62798C17.3965 4.9069 17.5 5.23817 17.5 5.57752V10.0467C17.5 11.4395 17.1122 12.8049 16.3799 13.9897C15.6477 15.1746 14.6 16.1321 13.3542 16.755L10.5592 18.1525C10.3856 18.2394 10.1941 18.2846 10 18.2846C9.80589 18.2846 9.61444 18.2394 9.44083 18.1525L6.64583 16.755C5.40003 16.1321 4.35231 15.1746 3.62006 13.9897C2.88781 12.8049 2.49997 11.4395 2.5 10.0467V5.57752C2.49996 5.23817 2.6035 4.9069 2.79679 4.62798C2.99009 4.34906 3.26391 4.1358 3.58167 4.01669L9.415 1.82919C9.79219 1.6878 10.2078 1.6878 10.585 1.82919ZM10 3.39002L4.16667 5.57752V10.0467C4.16686 11.1299 4.46866 12.1917 5.03826 13.1131C5.60786 14.0344 6.42276 14.779 7.39167 15.2634L10 16.5692L12.6083 15.265C13.5775 14.7805 14.3926 14.0357 14.9622 13.114C15.5318 12.1923 15.8335 11.1302 15.8333 10.0467V5.57752L10 3.39002ZM10 6.66669C10.221 6.66669 10.433 6.75448 10.5893 6.91076C10.7455 7.06704 10.8333 7.27901 10.8333 7.50002V9.16669H12.5C12.721 9.16669 12.933 9.25448 13.0893 9.41076C13.2455 9.56704 13.3333 9.77901 13.3333 10C13.3333 10.221 13.2455 10.433 13.0893 10.5893C12.933 10.7456 12.721 10.8334 12.5 10.8334H10.8333V12.5C10.8333 12.721 10.7455 12.933 10.5893 13.0893C10.433 13.2456 10.221 13.3334 10 13.3334C9.77899 13.3334 9.56702 13.2456 9.41074 13.0893C9.25446 12.933 9.16667 12.721 9.16667 12.5V10.8334H7.5C7.27899 10.8334 7.06702 10.7456 6.91074 10.5893C6.75446 10.433 6.66667 10.221 6.66667 10C6.66667 9.77901 6.75446 9.56704 6.91074 9.41076C7.06702 9.25448 7.27899 9.16669 7.5 9.16669H9.16667V7.50002C9.16667 7.27901 9.25446 7.06704 9.41074 6.91076C9.56702 6.75448 9.77899 6.66669 10 6.66669Z" fill="url(#paint0_linear_4262_2796)"/>
</g>
<defs>
<linearGradient id="paint0_linear_4262_2796" x1="17.5" y1="10.0039" x2="2.5" y2="10.0039" gradientUnits="userSpaceOnUse">
<stop stop-color="#3A42FF"/>
<stop offset="1" stop-color="#7B52AB"/>
</linearGradient>
</defs>
</svg>
