<svg width="20" height="20" viewBox="0 0 20 20" fill="none" xmlns="http://www.w3.org/2000/svg">
<g id="Outline/clock">
<path id="Vector" fill-rule="evenodd" clip-rule="evenodd" d="M2.6665 9.99984C2.6665 5.94975 5.94975 2.6665 9.99984 2.6665C14.0499 2.6665 17.3332 5.94975 17.3332 9.99984C17.3332 14.0499 14.0499 17.3332 9.99984 17.3332C5.94975 17.3332 2.6665 14.0499 2.6665 9.99984ZM9.99984 0.666504C4.84518 0.666504 0.666504 4.84518 0.666504 9.99984C0.666504 15.1545 4.84518 19.3332 9.99984 19.3332C15.1545 19.3332 19.3332 15.1545 19.3332 9.99984C19.3332 4.84518 15.1545 0.666504 9.99984 0.666504ZM10.1665 4.99984C10.1665 4.44755 9.71879 3.99984 9.1665 3.99984C8.61422 3.99984 8.1665 4.44755 8.1665 4.99984V10.8332V11.8332H9.1665H13.3332C13.8855 11.8332 14.3332 11.3855 14.3332 10.8332C14.3332 10.2809 13.8855 9.83317 13.3332 9.83317H10.1665V4.99984Z" fill="url(#paint0_linear_3483_12454)"/>
</g>
<defs>
<linearGradient id="paint0_linear_3483_12454" x1="19.3332" y1="9.99984" x2="0.666504" y2="9.99984" gradientUnits="userSpaceOnUse">
<stop stop-color="#3A42FF"/>
<stop offset="1" stop-color="#7B52AB"/>
</linearGradient>
</defs>
</svg>
