<svg width="20" height="20" viewBox="0 0 20 20" fill="none" xmlns="http://www.w3.org/2000/svg">
<g id="uil:bag-alt">
<path id="Vector" d="M15.8332 5.41683H13.3332V4.5835C13.3332 3.92045 13.0698 3.28457 12.6009 2.81573C12.1321 2.34689 11.4962 2.0835 10.8332 2.0835H9.1665C8.50346 2.0835 7.86758 2.34689 7.39874 2.81573C6.9299 3.28457 6.6665 3.92045 6.6665 4.5835V5.41683H4.1665C3.50346 5.41683 2.86758 5.68022 2.39874 6.14906C1.9299 6.6179 1.6665 7.25379 1.6665 7.91683V15.4168C1.6665 16.0799 1.9299 16.7158 2.39874 17.1846C2.86758 17.6534 3.50346 17.9168 4.1665 17.9168H15.8332C16.4962 17.9168 17.1321 17.6534 17.6009 17.1846C18.0698 16.7158 18.3332 16.0799 18.3332 15.4168V7.91683C18.3332 7.25379 18.0698 6.6179 17.6009 6.14906C17.1321 5.68022 16.4962 5.41683 15.8332 5.41683ZM8.33317 4.5835C8.33317 4.36248 8.42097 4.15052 8.57725 3.99424C8.73353 3.83796 8.94549 3.75016 9.1665 3.75016H10.8332C11.0542 3.75016 11.2661 3.83796 11.4224 3.99424C11.5787 4.15052 11.6665 4.36248 11.6665 4.5835V5.41683H8.33317V4.5835ZM16.6665 15.4168C16.6665 15.6378 16.5787 15.8498 16.4224 16.0061C16.2661 16.1624 16.0542 16.2502 15.8332 16.2502H4.1665C3.94549 16.2502 3.73353 16.1624 3.57725 16.0061C3.42097 15.8498 3.33317 15.6378 3.33317 15.4168V10.8335C5.45505 11.6753 7.71708 12.1079 9.99984 12.1085C12.2825 12.1071 14.5444 11.6745 16.6665 10.8335V15.4168ZM16.6665 9.0085C14.5652 9.93164 12.295 10.4083 9.99984 10.4083C7.70467 10.4083 5.43451 9.93164 3.33317 9.0085V7.91683C3.33317 7.69582 3.42097 7.48385 3.57725 7.32757C3.73353 7.17129 3.94549 7.0835 4.1665 7.0835H15.8332C16.0542 7.0835 16.2661 7.17129 16.4224 7.32757C16.5787 7.48385 16.6665 7.69582 16.6665 7.91683V9.0085Z" fill="url(#paint0_linear_3483_12449)"/>
</g>
<defs>
<linearGradient id="paint0_linear_3483_12449" x1="18.3332" y1="10.0002" x2="1.6665" y2="10.0002" gradientUnits="userSpaceOnUse">
<stop stop-color="#3A42FF"/>
<stop offset="1" stop-color="#7B52AB"/>
</linearGradient>
</defs>
</svg>
