<svg width="32" height="32" viewBox="0 0 32 32" fill="none" xmlns="http://www.w3.org/2000/svg">
<path fill-rule="evenodd" clip-rule="evenodd" d="M6 5.66675C4.34315 5.66675 3 7.00989 3 8.66675V23.3334C3 24.9903 4.34315 26.3334 6 26.3334H26C27.6569 26.3334 29 24.9903 29 23.3334V8.66675C29 7.00989 27.6569 5.66675 26 5.66675H6ZM5 9.08096V23.3334C5 23.8857 5.44772 24.3334 6 24.3334H26C26.5523 24.3334 27 23.8857 27 23.3334V9.08096L18.1213 17.9596C16.9497 19.1312 15.0503 19.1312 13.8787 17.9596L5 9.08096ZM25.5858 7.66675H6.41421L15.2929 16.5454C15.6834 16.936 16.3166 16.936 16.7071 16.5454L25.5858 7.66675Z" fill="#505050"/>
</svg>
