<svg width="34" height="34" viewBox="0 0 34 34" fill="none" xmlns="http://www.w3.org/2000/svg">
<circle cx="17" cy="17" r="17" fill="#7B52AB"/>
<path d="M17.9788 22.2917H9.83301C10.3552 21.9959 10.8007 21.5817 11.1336 21.0824C11.4665 20.583 11.6776 20.0125 11.7497 19.4167V16.5417C11.8068 15.3256 12.1937 14.148 12.869 13.1351C13.5442 12.1221 14.4824 11.3121 15.583 10.7917C15.583 10.2833 15.7849 9.79582 16.1444 9.43638C16.5038 9.07693 16.9913 8.875 17.4997 8.875C18.008 8.875 18.4955 9.07693 18.855 9.43638C19.2144 9.79582 19.4163 10.2833 19.4163 10.7917C20.5169 11.3121 21.4551 12.1221 22.1304 13.1351C22.8057 14.148 23.1926 15.3256 23.2497 16.5417V17.5M14.6247 22.2917V23.25C14.6246 23.669 14.7161 24.0829 14.8927 24.4628C15.0694 24.8427 15.3269 25.1794 15.6473 25.4494C15.9678 25.7193 16.3433 25.916 16.7477 26.0256C17.1521 26.1351 17.5755 26.155 17.9884 26.0838M21.333 24.2083H27.083M24.208 21.3333V27.0833" stroke="white" stroke-linecap="round" stroke-linejoin="round"/>
</svg>
