<svg width="32" height="32" viewBox="0 0 32 32" fill="none" xmlns="http://www.w3.org/2000/svg">
<path d="M25.6441 18.067L25.644 18.0668C25.1143 17.2723 24.8333 16.3397 24.8333 15.3855V9.3335C24.8333 5.11279 20.7231 1.8335 16 1.8335C11.2756 1.8335 7.16667 5.11275 7.16667 9.3335V15.3855C7.16666 16.3399 6.88412 17.2729 6.35467 18.0669L6.35465 18.0669L3.42159 22.4652L25.6441 18.067ZM25.6441 18.067L28.5774 22.4643L28.5776 22.4647M25.6441 18.067L28.5776 22.4647M28.5776 22.4647C28.731 22.6941 28.8191 22.9608 28.8326 23.2364C28.8461 23.512 28.7844 23.786 28.6542 24.0293C28.524 24.2726 28.3302 24.4759 28.0934 24.6175C27.8567 24.7592 27.5858 24.8338 27.3099 24.8335H27.3093M28.5776 22.4647L27.3093 24.8335M27.3093 24.8335H20.6667H20.1667M27.3093 24.8335H20.1667M20.1667 24.8335V25.3335M20.1667 24.8335V25.3335M20.1667 25.3335C20.1667 25.8807 20.0589 26.4225 19.8495 26.928C19.6401 27.4335 19.3332 27.8929 18.9463 28.2798C18.5594 28.6667 18.1 28.9736 17.5945 29.183C17.089 29.3924 16.5472 29.5002 16 29.5002C15.4528 29.5002 14.911 29.3924 14.4055 29.183C13.9 28.9736 13.4406 28.6667 13.0537 28.2798C12.6668 27.8929 12.3599 27.4335 12.1505 26.928C11.9411 26.4225 11.8333 25.8807 11.8333 25.3335V24.8335M20.1667 25.3335L11.8333 24.8335M11.8333 24.8335H11.3333M11.8333 24.8335H11.3333M11.3333 24.8335H4.692H4.69158M11.3333 24.8335H4.69158M4.69158 24.8335C4.41574 24.8337 4.145 24.7591 3.90825 24.6175C3.6715 24.476 3.4776 24.2728 3.34724 24.0297L2.9066 24.266M4.69158 24.8335L2.9066 24.266M2.9066 24.266L3.34724 24.0297C3.21688 23.7866 3.15495 23.5127 3.16804 23.2372M2.9066 24.266L3.16804 23.2372M11.3333 25.3335C11.3333 25.9463 11.454 26.5532 11.6886 27.1194C11.9231 27.6855 12.2668 28.2 12.7002 28.6333C13.1335 29.0667 13.648 29.4104 14.2141 29.6449C14.7803 29.8795 15.3872 30.0002 16 30.0002C16.6128 30.0002 17.2197 29.8795 17.7859 29.6449C18.352 29.4104 18.8665 29.0667 19.2998 28.6333C19.7332 28.2 20.0769 27.6855 20.3114 27.1194C20.546 26.5532 20.6667 25.9463 20.6667 25.3335H21.1667H27.3093C27.6758 25.3339 28.0356 25.2348 28.3501 25.0466C28.6646 24.8584 28.9221 24.5884 29.0951 24.2652C29.268 23.9421 29.3499 23.578 29.332 23.2119L11.3333 25.3335ZM11.3333 25.3335H10.8333H11.3333ZM3.16804 23.2372C3.18112 22.9618 3.26866 22.6951 3.42132 22.4656L3.16804 23.2372ZM8.16667 15.3855V15.3856C8.16699 16.5373 7.82642 17.6632 7.18789 18.6216L4.25472 23.0187L4.21323 23.0809L4.19175 23.1525L4.18775 23.1658L4.15613 23.2712L4.17169 23.3802L4.17302 23.3895L4.18906 23.5018L4.25196 23.5962L4.25729 23.6042L4.31277 23.6874L4.39599 23.7429L4.40399 23.7482L4.4984 23.8111L4.61073 23.8272L4.62006 23.8285L4.65519 23.8335H4.69067H27.3093H27.3448L27.3799 23.8285L27.3893 23.8272L27.5016 23.8111L27.596 23.7482L27.604 23.7429L27.6872 23.6874L27.7427 23.6041L27.7481 23.5961L27.8076 23.5068L27.8252 23.401L27.8265 23.393L27.8325 23.3574L27.8332 23.3213C27.8355 23.2137 27.8045 23.1082 27.7446 23.019L24.8134 18.6215C24.1746 17.6632 23.8336 16.5372 23.8333 15.3855C23.8333 15.3855 23.8333 15.3854 23.8333 15.3854V9.3335C23.8333 5.82813 20.348 2.8335 16 2.8335C11.652 2.8335 8.16667 5.82813 8.16667 9.3335V15.3855ZM19.1667 25.3335V24.8335H18.6667H13.3333H12.8333V25.3335C12.8333 26.1733 13.167 26.9788 13.7608 27.5727C14.3547 28.1665 15.1601 28.5002 16 28.5002C16.8399 28.5002 17.6453 28.1665 18.2392 27.5727C18.833 26.9788 19.1667 26.1733 19.1667 25.3335Z" stroke="#505050"/>
</svg>
