<svg width="34" height="34" viewBox="0 0 34 34" fill="none" xmlns="http://www.w3.org/2000/svg">
<circle cx="17" cy="17" r="17" fill="#7B52AB"/>
<path d="M17.5 20.9141C18.1752 20.9141 18.8353 20.7138 19.3968 20.3387C19.9582 19.9635 20.3958 19.4303 20.6542 18.8065C20.9126 18.1827 20.9802 17.4962 20.8485 16.8339C20.7167 16.1717 20.3916 15.5634 19.9141 15.0859C19.4366 14.6084 18.8283 14.2833 18.1661 14.1515C17.5038 14.0198 16.8173 14.0874 16.1935 14.3458C15.5697 14.6042 15.0365 15.0418 14.6613 15.6032C14.2862 16.1647 14.0859 16.8248 14.0859 17.5C14.0859 18.4055 14.4456 19.2738 15.0859 19.9141C15.7262 20.5544 16.5945 20.9141 17.5 20.9141ZM17.5 15.1641C17.962 15.1641 18.4136 15.3011 18.7978 15.5577C19.1819 15.8144 19.4813 16.1792 19.6581 16.6061C19.8349 17.0329 19.8812 17.5026 19.7911 17.9557C19.7009 18.4088 19.4784 18.8251 19.1518 19.1518C18.8251 19.4784 18.4088 19.7009 17.9557 19.7911C17.5026 19.8812 17.0329 19.8349 16.6061 19.6581C16.1792 19.4813 15.8144 19.1819 15.5577 18.7978C15.3011 18.4136 15.1641 17.962 15.1641 17.5C15.1641 16.8805 15.4102 16.2863 15.8482 15.8482C16.2863 15.4102 16.8805 15.1641 17.5 15.1641ZM27.5625 11.2109H7.4375C7.29453 11.2109 7.15742 11.2677 7.05633 11.3688C6.95523 11.4699 6.89844 11.607 6.89844 11.75V23.25C6.89844 23.393 6.95523 23.5301 7.05633 23.6312C7.15742 23.7323 7.29453 23.7891 7.4375 23.7891H27.5625C27.7055 23.7891 27.8426 23.7323 27.9437 23.6312C28.0448 23.5301 28.1016 23.393 28.1016 23.25V11.75C28.1016 11.607 28.0448 11.4699 27.9437 11.3688C27.8426 11.2677 27.7055 11.2109 27.5625 11.2109ZM7.97656 15.7768C8.81358 15.5541 9.57693 15.1143 10.1894 14.5019C10.8018 13.8894 11.2416 13.1261 11.4643 12.2891H23.5357C23.7584 13.1261 24.1982 13.8894 24.8106 14.5019C25.4231 15.1143 26.1864 15.5541 27.0234 15.7768V19.2232C26.1864 19.4459 25.4231 19.8857 24.8106 20.4981C24.1982 21.1106 23.7584 21.8739 23.5357 22.7109H11.4643C11.2416 21.8739 10.8018 21.1106 10.1894 20.4981C9.57693 19.8857 8.81358 19.4459 7.97656 19.2232V15.7768ZM27.0234 14.6511C26.4775 14.4603 25.9815 14.1489 25.5726 13.7399C25.1636 13.331 24.8522 12.835 24.6614 12.2891H27.0234V14.6511ZM10.3386 12.2891C10.1478 12.835 9.83638 13.331 9.42743 13.7399C9.01848 14.1489 8.52255 14.4603 7.97656 14.6511V12.2891H10.3386ZM7.97656 20.3489C8.52255 20.5397 9.01848 20.8511 9.42743 21.2601C9.83638 21.669 10.1478 22.165 10.3386 22.7109H7.97656V20.3489ZM24.6614 22.7109C24.8522 22.165 25.1636 21.669 25.5726 21.2601C25.9815 20.8511 26.4775 20.5397 27.0234 20.3489V22.7109H24.6614Z" fill="white"/>
</svg>
