<svg width="32" height="32" viewBox="0 0 32 32" fill="none" xmlns="http://www.w3.org/2000/svg">
<path d="M26.0879 10.7295L26.1431 11.1669H26.584H28C28.5746 11.1669 29.1257 11.3951 29.532 11.8015C29.9384 12.2078 30.1666 12.7589 30.1666 13.3335V18.6669C30.1666 19.2415 29.9384 19.7926 29.532 20.1989C29.1257 20.6053 28.5746 20.8335 28 20.8335H26.584H26.1431L26.0879 21.271C25.7781 23.7279 24.5823 25.9873 22.7249 27.6252C20.9929 29.1525 18.7966 30.0415 16.5 30.1546V28.4855C18.572 28.3635 20.5346 27.4864 22.0104 26.0106C23.6044 24.4165 24.5 22.2545 24.5 20.0002V12.0002C24.5 9.74585 23.6044 7.58384 22.0104 5.98979C20.4163 4.39573 18.2543 3.50019 16 3.50019C13.7456 3.50019 11.5836 4.39573 9.98957 5.98979C8.39551 7.58384 7.49998 9.74585 7.49998 12.0002V20.8335H3.99998C3.42534 20.8335 2.87424 20.6053 2.46792 20.1989C2.06159 19.7926 1.83331 19.2415 1.83331 18.6669V13.3335C1.83331 12.7589 2.06159 12.2078 2.46792 11.8015C2.87424 11.3951 3.42534 11.1669 3.99998 11.1669H5.41598H5.85683L5.91204 10.7295C6.22217 8.27281 7.41809 6.01374 9.27542 4.37613C11.1327 2.73853 13.5238 1.83496 16 1.83496C18.4761 1.83496 20.8672 2.73853 22.7245 4.37613C24.5819 6.01374 25.7778 8.27281 26.0879 10.7295ZM3.99998 12.8335H3.49998V13.3335V18.6669V19.1669H3.99998H5.33331H5.83331V18.6669V13.3335V12.8335H5.33331H3.99998ZM26.6666 12.8335H26.1666V13.3335V18.6669V19.1669H26.6666H28H28.5V18.6669V13.3335V12.8335H28H26.6666ZM16.0007 22.1669L15.9992 22.1669C14.2608 22.1696 12.5539 21.7243 11.0419 20.8779L11.9266 19.4624C13.1731 20.1441 14.5738 20.5024 16 20.5002C17.4261 20.5024 18.8269 20.1441 20.0734 19.4624L20.9581 20.8779C19.446 21.7243 17.7392 22.1695 16.0007 22.1669Z" fill="#505050" stroke="#505050"/>
</svg>
