<svg width="32" height="32" viewBox="0 0 32 32" fill="none" xmlns="http://www.w3.org/2000/svg">
<path d="M16.6666 22.6667H5.33331C6.0599 22.2552 6.67973 21.6789 7.1429 20.9842C7.60607 20.2894 7.89964 19.4956 7.99998 18.6667V14.6667C8.07939 12.9748 8.61771 11.3364 9.55725 9.92707C10.4968 8.51777 11.8021 7.3907 13.3333 6.66667C13.3333 5.95942 13.6143 5.28115 14.1144 4.78105C14.6145 4.28095 15.2927 4 16 4C16.7072 4 17.3855 4.28095 17.8856 4.78105C18.3857 5.28115 18.6666 5.95942 18.6666 6.66667C20.1979 7.3907 21.5032 8.51777 22.4427 9.92707C23.3822 11.3364 23.9206 12.9748 24 14.6667V16M12 22.6667V24C11.9999 24.5829 12.1271 25.1588 12.3729 25.6874C12.6187 26.216 12.977 26.6844 13.4228 27.06C13.8686 27.4356 14.3911 27.7092 14.9538 27.8616C15.5164 28.0141 16.1055 28.0418 16.68 27.9427M21.3333 25.3333H29.3333M25.3333 21.3333V29.3333" stroke="#505050" stroke-width="2" stroke-linecap="round" stroke-linejoin="round"/>
</svg>
