<svg width="20" height="20" viewBox="0 0 20 20" fill="none" xmlns="http://www.w3.org/2000/svg">
<g id="uil:bag-alt">
<path id="Vector" d="M15.8327 5.41683H13.3327V4.5835C13.3327 3.92045 13.0693 3.28457 12.6005 2.81573C12.1316 2.34689 11.4957 2.0835 10.8327 2.0835H9.16602C8.50297 2.0835 7.86709 2.34689 7.39825 2.81573C6.92941 3.28457 6.66602 3.92045 6.66602 4.5835V5.41683H4.16602C3.50297 5.41683 2.86709 5.68022 2.39825 6.14906C1.92941 6.6179 1.66602 7.25379 1.66602 7.91683V15.4168C1.66602 16.0799 1.92941 16.7158 2.39825 17.1846C2.86709 17.6534 3.50297 17.9168 4.16602 17.9168H15.8327C16.4957 17.9168 17.1316 17.6534 17.6005 17.1846C18.0693 16.7158 18.3327 16.0799 18.3327 15.4168V7.91683C18.3327 7.25379 18.0693 6.6179 17.6005 6.14906C17.1316 5.68022 16.4957 5.41683 15.8327 5.41683ZM8.33268 4.5835C8.33268 4.36248 8.42048 4.15052 8.57676 3.99424C8.73304 3.83796 8.945 3.75016 9.16602 3.75016H10.8327C11.0537 3.75016 11.2657 3.83796 11.4219 3.99424C11.5782 4.15052 11.666 4.36248 11.666 4.5835V5.41683H8.33268V4.5835ZM16.666 15.4168C16.666 15.6378 16.5782 15.8498 16.4219 16.0061C16.2657 16.1624 16.0537 16.2502 15.8327 16.2502H4.16602C3.945 16.2502 3.73304 16.1624 3.57676 16.0061C3.42048 15.8498 3.33268 15.6378 3.33268 15.4168V10.8335C5.45457 11.6753 7.71659 12.1079 9.99935 12.1085C12.282 12.1071 14.5439 11.6745 16.666 10.8335V15.4168ZM16.666 9.0085C14.5647 9.93164 12.2945 10.4083 9.99935 10.4083C7.70418 10.4083 5.43402 9.93164 3.33268 9.0085V7.91683C3.33268 7.69582 3.42048 7.48385 3.57676 7.32757C3.73304 7.17129 3.945 7.0835 4.16602 7.0835H15.8327C16.0537 7.0835 16.2657 7.17129 16.4219 7.32757C16.5782 7.48385 16.666 7.69582 16.666 7.91683V9.0085Z" fill="#9E9E9E"/>
</g>
</svg>
